<svg width="29" height="29" viewBox="0 0 29 29" fill="none" xmlns="http://www.w3.org/2000/svg">
<path fill-rule="evenodd" clip-rule="evenodd" d="M20.0979 2.62463C18.433 2.62463 16.8362 3.28604 15.6589 4.46335L13.7932 6.32901C13.4027 6.71954 13.4027 7.3527 13.7932 7.74323C14.1838 8.13375 14.8169 8.13375 15.2074 7.74323L17.0731 5.87756C17.8753 5.07532 18.9634 4.62463 20.0979 4.62463C21.2325 4.62463 22.3205 5.07532 23.1228 5.87756C23.925 6.67979 24.3757 7.76786 24.3757 8.90239C24.3757 10.0369 23.925 11.125 23.1228 11.9272L19.3903 15.6584C18.5881 16.4603 17.5003 16.9108 16.366 16.9108C15.2317 16.9108 14.1439 16.4603 13.3416 15.6584C12.951 15.268 12.3179 15.2681 11.9274 15.6587C11.537 16.0493 11.5371 16.6825 11.9277 17.0729C13.105 18.2497 14.7014 18.9108 16.366 18.9108C18.0306 18.9108 19.6271 18.2497 20.8043 17.0729L24.537 13.3414C25.7143 12.1641 26.3757 10.5674 26.3757 8.90239C26.3757 7.23743 25.7143 5.64065 24.537 4.46335C23.3597 3.28604 21.7629 2.62463 20.0979 2.62463ZM12.6347 10.0892C10.9701 10.0892 9.37368 10.7503 8.1964 11.9271L8.19637 11.9271L4.46383 15.6584L4.46371 15.6585C3.2864 16.8358 2.625 18.4326 2.625 20.0976C2.625 21.7626 3.2864 23.3593 4.46371 24.5366C5.64102 25.7139 7.23779 26.3753 8.90276 26.3753C10.5677 26.3753 12.1645 25.7139 13.3418 24.5366L15.2075 22.671C15.598 22.2804 15.598 21.6473 15.2075 21.2568C14.8169 20.8662 14.1838 20.8662 13.7933 21.2568L11.9276 23.1224C11.1254 23.9247 10.0373 24.3753 8.90276 24.3753C7.76822 24.3753 6.68016 23.9247 5.87793 23.1224C5.07569 22.3202 4.625 21.2321 4.625 20.0976C4.625 18.9631 5.07565 17.8751 5.87781 17.0729L5.87793 17.0728L9.61032 13.3416L9.61035 13.3415C10.4126 12.5397 11.5004 12.0892 12.6347 12.0892C13.769 12.0892 14.8568 12.5397 15.6591 13.3416C16.0497 13.732 16.6828 13.7319 17.0733 13.3413C17.4637 12.9507 17.4636 12.3175 17.073 11.9271C15.8957 10.7503 14.2993 10.0892 12.6347 10.0892Z" fill="#161412"/>
</svg>
