<svg width="30" height="30" viewBox="0 0 30 30" fill="none" xmlns="http://www.w3.org/2000/svg">
<path fill-rule="evenodd" clip-rule="evenodd" d="M8.96783 7.90717C8.67494 7.61428 8.20006 7.61428 7.90717 7.90717C7.61428 8.20006 7.61428 8.67494 7.90717 8.96783L13.9393 15L7.90717 21.0322C7.61428 21.3251 7.61428 21.7999 7.90717 22.0928C8.20006 22.3857 8.67494 22.3857 8.96783 22.0928L15 16.0607L21.0322 22.0928C21.3251 22.3857 21.7999 22.3857 22.0928 22.0928C22.3857 21.7999 22.3857 21.3251 22.0928 21.0322L16.0607 15L22.0928 8.96783C22.3857 8.67494 22.3857 8.20006 22.0928 7.90717C21.7999 7.61428 21.3251 7.61428 21.0322 7.90717L15 13.9393L8.96783 7.90717Z" fill="#161412"/>
</svg>
