<svg width="40" height="40" viewBox="0 0 40 40" fill="none" xmlns="http://www.w3.org/2000/svg">
<path d="M8.75 6.25C7.3825 6.25 6.25 7.3825 6.25 8.75V31.25C6.25 32.6175 7.3825 33.75 8.75 33.75H31.25C32.6175 33.75 33.75 32.6175 33.75 31.25V8.75C33.75 7.3825 32.6175 6.25 31.25 6.25H8.75ZM8.75 8.75H31.25V31.25H24.765V22.8125H28.0075L28.4762 19.0625H24.7663V16.64C24.7663 15.5475 25.0338 14.805 26.6012 14.805H28.6325V11.4062C28.2863 11.3625 27.085 11.2888 25.7038 11.2888C22.8225 11.2888 20.86 13.0225 20.86 16.25V19.0625H17.5787V22.8125H20.8588V31.25H8.75V8.75Z" fill="#161412"/>
</svg>
