<svg width="29" height="29" viewBox="0 0 29 29" fill="none" xmlns="http://www.w3.org/2000/svg">
<path fill-rule="evenodd" clip-rule="evenodd" d="M11.377 17.6223C11.2422 17.4875 11.0594 17.4118 10.8688 17.4118C10.6782 17.4118 10.4954 17.4875 10.3607 17.6223L4.47266 23.5103V19.5313C4.47266 19.3406 4.39693 19.1578 4.26214 19.023C4.12735 18.8882 3.94453 18.8125 3.75391 18.8125C3.56328 18.8125 3.38047 18.8882 3.24567 19.023C3.11088 19.1578 3.03516 19.3406 3.03516 19.5313V25.2453C3.03516 25.4359 3.11088 25.6188 3.24567 25.7536C3.38047 25.8883 3.56328 25.9641 3.75391 25.9641H9.46797C9.65859 25.9641 9.84141 25.8883 9.9762 25.7536C10.111 25.6188 10.1867 25.4359 10.1867 25.2453C10.1867 25.0547 10.111 24.8719 9.9762 24.7371C9.84141 24.6023 9.65859 24.5266 9.46797 24.5266H5.48897L11.377 18.6386C11.5117 18.5038 11.5874 18.321 11.5874 18.1304C11.5874 17.9398 11.5117 17.757 11.377 17.6223ZM17.6215 17.6223C17.7563 17.4875 17.939 17.4118 18.1296 17.4118C18.3202 17.4118 18.503 17.4875 18.6378 17.6223L24.5258 23.5103V19.5313C24.5258 19.3406 24.6015 19.1578 24.7363 19.023C24.8711 18.8882 25.0539 18.8125 25.2445 18.8125C25.4352 18.8125 25.618 18.8882 25.7528 19.023C25.8876 19.1578 25.9633 19.3406 25.9633 19.5313V25.2453C25.9633 25.4359 25.8876 25.6188 25.7528 25.7536C25.618 25.8883 25.4352 25.9641 25.2445 25.9641H19.5305C19.3398 25.9641 19.157 25.8883 19.0222 25.7536C18.8874 25.6188 18.8117 25.4359 18.8117 25.2453C18.8117 25.0547 18.8874 24.8719 19.0222 24.7371C19.157 24.6023 19.3398 24.5266 19.5305 24.5266H23.5095L17.6215 18.6386C17.4867 18.5038 17.411 18.321 17.411 18.1304C17.411 17.9398 17.4867 17.757 17.6215 17.6223ZM17.6215 11.3778C17.7563 11.5125 17.939 11.5882 18.1296 11.5882C18.3202 11.5882 18.503 11.5125 18.6378 11.3778L24.5258 5.48976V9.46876C24.5258 9.65939 24.6015 9.8422 24.7363 9.97699C24.8711 10.1118 25.0539 10.1875 25.2445 10.1875C25.4352 10.1875 25.618 10.1118 25.7528 9.97699C25.8876 9.8422 25.9633 9.65939 25.9633 9.46876V3.7547C25.9633 3.56408 25.8876 3.38126 25.7528 3.24647C25.618 3.11167 25.4352 3.03595 25.2445 3.03595H19.5305C19.3398 3.03595 19.157 3.11167 19.0222 3.24647C18.8874 3.38126 18.8117 3.56408 18.8117 3.7547C18.8117 3.94532 18.8874 4.12814 19.0222 4.26293C19.157 4.39772 19.3398 4.47345 19.5305 4.47345H23.5095L17.6215 10.3614C17.4867 10.4962 17.411 10.679 17.411 10.8696C17.411 11.0602 17.4867 11.243 17.6215 11.3778ZM11.377 11.3778C11.2422 11.5125 11.0594 11.5882 10.8688 11.5882C10.6782 11.5882 10.4954 11.5125 10.3607 11.3778L4.47266 5.48976V9.46876C4.47266 9.65939 4.39693 9.8422 4.26214 9.97699C4.12735 10.1118 3.94453 10.1875 3.75391 10.1875C3.56328 10.1875 3.38047 10.1118 3.24567 9.97699C3.11088 9.8422 3.03516 9.65939 3.03516 9.46876V3.7547C3.03516 3.56408 3.11088 3.38126 3.24567 3.24647C3.38047 3.11167 3.56328 3.03595 3.75391 3.03595H9.46797C9.65859 3.03595 9.84141 3.11167 9.9762 3.24647C10.111 3.38126 10.1867 3.56408 10.1867 3.7547C10.1867 3.94532 10.111 4.12814 9.9762 4.26293C9.84141 4.39772 9.65859 4.47345 9.46797 4.47345H5.48897L11.377 10.3614C11.5117 10.4962 11.5874 10.679 11.5874 10.8696C11.5874 11.0602 11.5117 11.243 11.377 11.3778Z" fill="#161412"/>
</svg>
