<svg width="46" height="32" viewBox="0 0 46 32" fill="none" xmlns="http://www.w3.org/2000/svg">
    <path d="M25.4475 22.8065C24.0235 18.7643 20.188 18.7183 17.9832 19.2695L18.2129 12.9076C27.0552 11.92 27.3538 0 27.3538 0H24.3451C24.3451 8.7735 19.6828 10.542 18.3507 10.542L18.6263 0.0229669L15.5257 0L14.6759 30.6154H17.7995L17.9832 21.5203C24.5288 19.3614 23.7939 30.5694 23.7939 30.5694H26.7566C26.7336 30.5924 27.2389 27.8593 25.4475 22.8065Z" fill="#333333"/>
    <path d="M4.68526 22.1635C3.03162 22.5999 1.53876 23.7253 1.53876 26.1828C1.53876 29.9724 4.59339 30.9829 6.4767 31.2585C7.14274 31.3504 7.30352 31.3274 7.34945 31.3274C7.67099 31.2585 7.99253 31.2585 8.2911 31.1666C9.78397 30.6614 11.0472 29.5819 11.0472 27.3541C11.0472 21.8419 4.68526 22.1635 4.68526 22.1635ZM7.18868 28.5024C7.11978 28.5254 7.05088 28.5484 6.98197 28.5713C6.77527 28.6173 6.56857 28.6173 6.38483 28.5943C5.0757 28.5024 4.20295 28.112 4.20295 26.4354C4.20295 25.5856 4.73119 24.9655 5.42021 24.8277C7.11978 24.8277 8.36 25.0114 8.36 27.0096C8.38297 27.8594 7.83176 28.2728 7.18868 28.5024Z" fill="#333333"/>
    <path d="M9.53142 0.0689697L9.71516 7.28069C9.71516 9.48555 9.66922 10.9555 9.53142 12.6091C9.27878 15.457 8.93427 18.7643 6.3849 18.7643C3.83554 18.7643 3.46806 14.6532 3.21542 12.6321C3.12355 11.8282 2.93981 10.6109 2.93981 7.25773C2.93981 3.9045 3.19245 0.137872 3.19245 0.137872H0.229673C0.229673 0.137872 0 4.68539 0 7.18882C0 9.69226 0.160772 11.4148 0.252641 12.6091C0.666052 18.0064 1.90628 20.9922 6.3849 20.9922C10.519 20.9922 12.0349 18.0753 12.4942 12.5632C12.655 10.7028 12.655 9.32478 12.655 7.28069L12.4712 0.160839L9.53142 0.0689697Z" fill="#333333"/>
    <path d="M37.9419 31.006H34.9792L35.3696 0.09198H38.4702L37.9419 31.006Z" fill="#333333"/>
    <path d="M30.868 15.7098C30.868 14.0562 30.1331 2.25096 36.7247 4.34098L36.6787 1.99832C34.405 1.47007 30.9599 1.65381 29.1684 5.65012C27.6756 8.98038 27.6985 13.5509 27.6985 15.7328C27.6985 17.9147 27.7445 21.888 29.1684 25.0345C30.9599 29.0308 34.405 29.2146 36.6787 28.6863L36.7247 26.3437C30.4087 28.3188 30.868 17.3634 30.868 15.7098Z" fill="#333333"/>
    <path d="M42.5813 15.7098C42.5813 14.0562 43.3163 2.25096 36.7246 4.34098L36.7705 1.99832C39.0443 1.47007 42.4895 1.65381 44.2809 5.65012C45.7738 8.98038 45.7509 13.5509 45.7509 15.7328C45.7509 17.9147 45.7049 21.888 44.2809 25.0345C42.4895 29.0308 39.0443 29.2146 36.7705 28.6863L36.7246 26.3437C43.0407 28.3188 42.5813 17.3634 42.5813 15.7098Z" fill="#333333"/>
</svg>
