<svg width="320" height="320" viewBox="0 0 320 320" fill="none" xmlns="http://www.w3.org/2000/svg">
    <rect width="320" height="320"/>
    <g opacity="0.6">
        <path opacity="0.6" d="M135.59 60.8092V74.9364H151.62V79.4451H135.59V97.6801H129.879V56.2004H154.626L153.925 60.8092H135.59Z" fill="black"/>
        <path opacity="0.6" d="M196.908 84.1541C196.908 86.2582 196.607 88.1618 195.906 89.9653C195.304 91.6686 194.303 93.1715 193.1 94.474C191.898 95.7765 190.395 96.6782 188.692 97.3796C186.988 98.0809 184.985 98.3815 182.881 98.3815C180.676 98.3815 178.773 98.0809 177.069 97.3796C175.366 96.6782 173.863 95.6763 172.661 94.474C171.459 93.1715 170.557 91.7688 169.956 89.9653C169.355 88.262 169.054 86.3584 169.054 84.1541V56.2004H174.765V83.9537C174.765 87.1599 175.466 89.6647 176.869 91.1676C178.272 92.7707 180.276 93.5722 182.881 93.5722C188.291 93.5722 191.096 90.3661 191.096 83.9537V56.2004H196.908V84.1541Z" fill="black"/>
        <path opacity="0.6" d="M142.202 116.116V152.686H136.491V116.116H123.767V111.306H155.227L154.626 116.116H142.202Z" fill="black"/>
        <path opacity="0.6" d="M196.907 139.26C196.907 141.364 196.607 143.268 195.906 145.071C195.304 146.775 194.302 148.277 193.1 149.58C191.898 150.882 190.395 151.784 188.692 152.486C186.988 153.187 184.985 153.487 182.881 153.487C180.776 153.487 178.773 153.187 177.069 152.486C175.366 151.784 173.863 150.782 172.761 149.58C171.559 148.277 170.657 146.875 170.056 145.071C169.455 143.368 169.154 141.464 169.154 139.26V111.306H174.865V139.06C174.865 142.266 175.566 144.771 176.969 146.274C178.372 147.877 180.376 148.678 182.981 148.678C188.391 148.678 191.196 145.472 191.196 139.06V111.306H197.008V139.26H196.907Z" fill="black"/>
        <path opacity="0.6" d="M240.692 123.029C240.692 124.632 240.391 126.035 239.89 127.237C239.389 128.439 238.688 129.541 237.786 130.543C236.884 131.445 235.882 132.247 234.68 132.948C233.478 133.649 232.175 134.15 230.773 134.451L242.896 152.686H236.083L225.062 135.152H219.751V152.686H214.04V111.306H224.961C230.171 111.306 234.079 112.308 236.784 114.212C239.389 116.216 240.692 119.222 240.692 123.029ZM234.68 123.029C234.68 120.424 233.979 118.52 232.476 117.418C230.973 116.316 228.669 115.715 225.563 115.715H219.852V130.744H225.663C228.568 130.744 230.773 130.143 232.376 128.94C233.879 127.838 234.68 125.834 234.68 123.029Z" fill="black"/>
        <path opacity="0.6" d="M263.335 115.915V129.441H278.565V134.05H263.335V148.277H282.071V152.786H257.624V111.306H281.57L280.869 115.915H263.335Z" fill="black"/>
    </g>
    <path d="M45.2158 65.4181C45.316 66.3198 45.316 67.2216 45.4162 68.1233C45.5164 69.025 45.5164 69.9268 45.6166 70.9287C45.7168 71.9306 45.7168 72.9326 45.817 74.0347C45.817 75.1368 45.9171 76.3391 45.9171 77.5414V80.0462L45.5164 97.6801H37L39.3044 56H49.5241L53.9326 82.1503H54.1329L58.4412 56H68.6609L71.0655 97.6801H62.3487L61.8478 79.946C61.8478 79.2447 61.7476 78.6435 61.7476 78.0424V76.3391C61.7476 75.237 61.7476 74.2351 61.7476 73.3333C61.7476 72.4316 61.8478 71.5299 61.8478 70.7283C61.948 69.9268 61.948 69.025 62.0482 68.2235C62.1484 67.422 62.2486 66.5202 62.2486 65.5183H62.0482L57.6397 90.6667H50.1252L45.5164 65.4181H45.2158Z" fill="black"/>
    <path d="M103.328 82.0501V97.6801H93.3083V82.0501L79.7823 56H90.7033L98.4181 73.5337H98.6185L106.434 56H116.954L103.328 82.0501Z" fill="black"/>
    <path d="M103.628 207.892V190.058H93.6089V207.892H83.5896V166.212H93.6089V182.343H103.628V166.212H113.647V207.892H103.628Z" fill="black"/>
    <path d="M138.696 173.326V183.245H153.123V190.258H138.696V200.778H156.029V207.892H128.676V166.212H156.029L155.027 173.326H138.696Z" fill="black"/>
    <path d="M200.014 178.936C200.014 180.439 199.813 181.742 199.412 182.944C199.012 184.146 198.41 185.249 197.609 186.15C196.807 187.052 196.006 187.954 195.004 188.555C194.002 189.156 192.9 189.857 191.798 190.258L202.719 207.792H191.497L182.58 191.961H179.775V207.792H169.755V166.212H182.881C188.592 166.212 192.9 167.214 195.805 169.318C198.711 171.422 200.014 174.528 200.014 178.936ZM189.694 178.936C189.694 176.933 189.092 175.43 187.99 174.528C186.788 173.626 185.085 173.225 182.78 173.225H179.574V185.148H183.181C185.285 185.148 186.888 184.647 187.99 183.645C189.193 182.744 189.694 181.141 189.694 178.936Z" fill="black"/>
    <path d="M214.241 166.212H241.393V173.526H232.776V200.578H241.393V207.892H214.241V200.578H222.857V173.526H214.241V166.212Z" fill="black"/>
    <path d="M104.53 228.933V262.998H94.5106V228.933H82.8882V221.318H116.653L115.651 228.933H104.53Z" fill="black"/>
    <path d="M145.308 253.981H133.185L130.981 262.898H120.561L133.285 221.318H145.408L158.133 262.998H147.412L145.308 253.981ZM134.788 246.767H143.705L139.397 229.133H139.096L134.788 246.767Z" fill="black"/>
    <path d="M184.083 264C178.071 264 173.563 262.197 170.457 258.489C167.351 254.782 165.848 249.272 165.848 242.158C165.848 238.651 166.349 235.545 167.351 232.74C168.353 230.035 169.755 227.73 171.459 225.927C173.162 224.123 175.266 222.721 177.57 221.719C179.875 220.817 182.38 220.316 185.085 220.316C188.091 220.316 190.696 220.817 192.8 221.719C194.904 222.721 196.807 223.923 198.41 225.426L193.2 230.836C191.898 229.734 190.696 228.933 189.593 228.331C188.491 227.73 187.089 227.53 185.686 227.53C184.283 227.53 182.981 227.83 181.778 228.331C180.576 228.832 179.574 229.734 178.773 230.936C177.971 232.139 177.27 233.642 176.769 235.445C176.268 237.249 176.067 239.553 176.067 242.158C176.067 244.863 176.268 247.168 176.568 249.071C176.869 250.975 177.37 252.478 178.071 253.58C178.773 254.682 179.574 255.584 180.576 256.085C181.578 256.586 182.78 256.886 184.183 256.886C185.085 256.886 185.987 256.786 186.888 256.586C187.79 256.385 188.592 256.085 189.293 255.684V246.266H184.083L183.081 239.252H198.611V259.992C196.507 261.295 194.202 262.297 191.798 263.098C189.493 263.599 186.888 264 184.083 264Z" fill="black"/>
    <path d="M223.058 228.432V238.351H237.486V245.364H223.058V255.884H240.391V262.998H213.039V221.318H240.391L239.389 228.432H223.058Z" fill="black"/>
</svg>