<svg width="48" height="45" viewBox="0 0 48 45" fill="none" xmlns="http://www.w3.org/2000/svg">
    <path fill-rule="evenodd" clip-rule="evenodd" d="M19.5922 22.0286V13.5529L12.2521 17.7936L19.5922 22.0286ZM20.8706 29.531L28.2107 25.2931L20.8706 21.0552V29.531ZM10.9822 27.696V19.2202L3.64207 23.4581L10.9822 27.696ZM21.514 30.524L28.854 34.7619V26.2861L21.514 30.524ZM24.163 21.3713L31.5031 25.6092V17.1334L24.163 21.3713ZM26.619 9.68141V18.1572L33.9591 13.9193L26.619 9.68141ZM11.5612 37.5592V29.0834L4.22111 33.3213L11.5612 37.5592ZM13.0018 37.8669L20.3419 33.629L13.0018 29.3911V37.8669ZM15.8802 37.4949L23.2175 41.7328V33.257L15.8802 37.4949ZM0 32.5465L7.34009 28.3086L0 24.0707V32.5465ZM30.7394 37.4305L38.0795 33.1926L30.7394 28.9547V37.4305ZM24.8036 43.2489L32.1437 39.011L24.8036 34.7731V43.2489ZM12.7389 7.89954L8.50096 0.559448L4.26307 7.89954H12.7389ZM7.25617 45L14.5963 40.7621L7.25617 36.5242V45ZM17.8243 10.9262L25.1644 15.1641V6.68831L17.8243 10.9262ZM39.3774 26.9659L46.7175 31.2038V22.728L39.3774 26.9659ZM19.7237 23.5532L12.3836 19.3153V27.7911L19.7237 23.5532Z" fill="#333333"/>
</svg>
