<svg width="48" height="45" viewBox="0 0 48 45" fill="none" xmlns="http://www.w3.org/2000/svg">
    <path d="M7.20377 5.64679C7.1423 4.49124 7.06854 3.10212 7.08084 2.0695H7.04396C6.76122 3.04065 6.41701 4.07327 5.99904 5.21653L4.53616 9.23636H3.72481L2.38487 5.29029C1.99149 4.12244 1.65957 3.05294 1.426 2.0695H1.40142C1.37683 3.10212 1.31536 4.49124 1.2416 5.73284L1.02033 9.28554H0L0.577775 1H1.94231L3.35602 5.00754C3.70023 6.02787 3.98297 6.93756 4.19196 7.79808H4.22883C4.43782 6.96215 4.73285 6.05246 5.10164 5.00754L6.57682 1H7.94136L8.45767 9.28554H7.41275L7.20377 5.64679Z" fill="#333333"/>
    <path d="M13.6331 9.28554V5.76971L11.0146 1H12.2316L13.3995 3.28651C13.7191 3.91346 13.965 4.41748 14.2231 4.99525H14.2477C14.4813 4.45436 14.764 3.91346 15.0836 3.28651L16.2761 1H17.4931L14.7148 5.75742V9.28554H13.6331Z" fill="#333333"/>
    <path d="M17.8742 1H22.3366V1.8974H18.9437V4.65105H22.0785V5.53615H18.9437V9.28554H17.8742V1Z" fill="#333333"/>
    <path d="M26.2827 1V5.90495C26.2827 7.76122 27.1063 8.54797 28.2127 8.54797C29.442 8.54797 30.2288 7.73663 30.2288 5.90495V1H31.3106V5.8312C31.3106 8.37587 29.9706 9.42079 28.1758 9.42079C26.4794 9.42079 25.2009 8.44963 25.2009 5.88037V1H26.2827Z" fill="#333333"/>
    <path d="M19.2633 13.1846H16.7432V12.2749H22.8774V13.1846H20.3451V20.5604H19.2633V13.1846Z" fill="#333333"/>
    <path d="M26.3933 12.2729V17.1778C26.3933 19.0341 27.2169 19.8209 28.3233 19.8209C29.5526 19.8209 30.3394 19.0095 30.3394 17.1778V12.2729H31.4212V17.1041C31.4212 19.6487 30.0812 20.6937 28.2864 20.6937C26.59 20.6937 25.3115 19.7225 25.3115 17.1532V12.2729H26.3933Z" fill="#333333"/>
    <path d="M34.7403 12.3835C35.2812 12.2729 36.0556 12.2114 36.7932 12.2114C37.9365 12.2114 38.674 12.4204 39.1904 12.8875C39.6083 13.2563 39.8419 13.8218 39.8419 14.461C39.8419 15.5551 39.1535 16.2804 38.2807 16.5755V16.6123C38.9199 16.8336 39.301 17.4237 39.4977 18.2842C39.7681 19.4398 39.9648 20.2388 40.1369 20.5584H39.0305C38.8953 20.3249 38.7109 19.6119 38.4774 18.5792C38.2315 17.436 37.7889 17.0057 36.8178 16.9688H35.8098V20.5584H34.7403V12.3835ZM35.8098 16.1575H36.9039C38.0471 16.1575 38.7724 15.5305 38.7724 14.584C38.7724 13.5145 37.9979 13.0473 36.867 13.035C36.3507 13.035 35.9819 13.0842 35.8098 13.1334V16.1575Z" fill="#333333"/>
    <path d="M46.9843 16.6738H43.7635V19.661H47.3531V20.5584H42.694V12.2729H47.1687V13.1703H43.7635V15.7887H46.9843V16.6738Z" fill="#333333"/>
    <path d="M10.3999 23.5477V27.0144H14.4075V23.5477H15.4893V31.8333H14.4075V27.9486H10.3999V31.8333H9.33044V23.5477H10.3999Z" fill="#333333"/>
    <path d="M23.025 27.9466H19.8042V30.9338H23.3938V31.8312H18.7347V23.5457H23.2094V24.4431H19.8042V27.0615H23.025V27.9466Z" fill="#333333"/>
    <path d="M26.1475 23.6563C26.6884 23.5457 27.4628 23.4842 28.2004 23.4842C29.3437 23.4842 30.0813 23.6932 30.5976 24.1603C31.0155 24.5291 31.2491 25.0946 31.2491 25.7338C31.2491 26.8279 30.5607 27.5532 29.6879 27.8483V27.8852C30.3271 28.1064 30.7082 28.6965 30.9049 29.557C31.1754 30.7126 31.372 31.5116 31.5441 31.8313H30.4378C30.3025 31.5977 30.1181 30.8847 29.8846 29.8521C29.6387 28.7088 29.1962 28.2785 28.225 28.2417H27.217V31.8313H26.1475V23.6563ZM27.217 27.4303H28.3111C29.4543 27.4303 30.1796 26.8034 30.1796 25.8568C30.1796 24.7873 29.4051 24.3201 28.2742 24.3078C27.7579 24.3078 27.3891 24.357 27.217 24.4062V27.4303Z" fill="#333333"/>
    <path d="M35.355 23.5457V31.8312H34.2855V23.5457H35.355Z" fill="#333333"/>
    <path d="M10.904 35.731H8.38391V34.8214H14.5181V35.731H11.9858V43.1069H10.904V35.731Z" fill="#333333"/>
    <path d="M17.5177 40.4979L16.6571 43.1041H15.5508L18.3659 34.8185H19.6567L22.4841 43.1041H21.3409L20.4557 40.4979H17.5177ZM20.2345 39.662L19.4231 37.2771C19.2387 36.7362 19.1158 36.2445 18.9929 35.7651H18.9683C18.8453 36.2568 18.7101 36.7608 18.5503 37.2648L17.7389 39.662H20.2345Z" fill="#333333"/>
    <path d="M31.4827 42.7353C31.0032 42.9074 30.0567 43.1901 28.938 43.1901C27.6841 43.1901 26.6515 42.8705 25.8401 42.096C25.1271 41.4076 24.6846 40.3012 24.6846 39.0104C24.6969 36.5395 26.3933 34.7324 29.1716 34.7324C30.1304 34.7324 30.8803 34.9414 31.2368 35.1135L30.9787 35.9863C30.5361 35.7896 29.9829 35.6298 29.147 35.6298C27.1309 35.6298 25.8155 36.8837 25.8155 38.9613C25.8155 41.0634 27.0817 42.305 29.0118 42.305C29.7125 42.305 30.1919 42.2067 30.4378 42.0837V39.6128H28.7536V38.7523H31.4827V42.7353Z" fill="#333333"/>
    <path d="M38.8832 39.2194H35.6623V42.2067H39.252V43.1041H34.5928V34.8185H39.0676V35.7159H35.6623V38.3343H38.8832V39.2194Z" fill="#333333"/>
</svg>
