<svg width="30" height="45" viewBox="0 0 30 45" fill="none" xmlns="http://www.w3.org/2000/svg">
    <g clip-path="url(#clip0_327:24366)">
        <path fill-rule="evenodd" clip-rule="evenodd" d="M24.0308 24.6833C30.72 16.0217 29.845 0 29.845 0H0V45H24.0308V30.9492V30.7592V24.8733H24.0283V24.6833C24.03 24.6833 24.0308 24.6833 24.0308 24.6833ZM18.0233 31.7092V37.405H6.78333V7.025H23.45V24.6833C23.45 24.6833 23.4608 24.685 23.4625 24.685V24.8733C23.4567 24.8733 23.4558 24.8733 23.45 24.8733C20.6483 28.9142 18.4108 29.81 18.4108 29.81V13.1017H12.0158C12.0158 13.1017 12.0317 29.2583 12.0158 32.2792C16.0967 32.2792 18.0233 30.57 18.0233 30.57V30.76V31.7092Z" fill="#333333"/>
    </g>
    <defs>
        <clipPath id="clip0_327:24366">
            <rect width="29.8825" height="45" fill="white"/>
        </clipPath>
    </defs>
</svg>