<svg width="26" height="38" viewBox="0 0 26 38" fill="none" xmlns="http://www.w3.org/2000/svg">
    <path fill-rule="evenodd" clip-rule="evenodd" d="M20.2927 20.8437C25.9413 13.5294 25.2024 0 25.2024 0H0V38H20.2927V26.1349V25.9744V21.0041H20.2906V20.8437C20.292 20.8437 20.2927 20.8437 20.2927 20.8437ZM15.2197 26.7766V31.5864H5.72815V5.93222H19.8022V20.8437C19.8022 20.8437 19.8114 20.8451 19.8128 20.8451V21.0041C19.8078 21.0041 19.8071 21.0041 19.8022 21.0041C17.4364 24.4164 15.5469 25.1729 15.5469 25.1729V11.0636H10.1467C10.1467 11.0636 10.1601 24.707 10.1467 27.258C13.5927 27.258 15.2197 25.8147 15.2197 25.8147V25.9751V26.7766Z" fill="#F7A716"/>
</svg>
