<?xml version="1.0" encoding="utf-8"?>
<!-- Generator: Adobe Illustrator 23.0.2, SVG Export Plug-In . SVG Version: 6.00 Build 0)  -->
<svg version="1.1" id="Layer_1" xmlns="http://www.w3.org/2000/svg" xmlns:xlink="http://www.w3.org/1999/xlink" x="0px" y="0px"
     viewBox="0 0 358.59 540" style="enable-background:new 0 0 358.59 540;" xml:space="preserve">
<style type="text/css">
	.st0{fill-rule:evenodd;clip-rule:evenodd;}
</style>
    <path class="st0" d="M288.37,296.2C368.64,192.26,358.14,0,358.14,0H0v540h288.37V371.39v-2.28v-70.63l-0.03,0v-2.28
	C288.36,296.2,288.37,296.2,288.37,296.2z M216.28,380.51v68.35H81.4V84.3h200v211.9c0,0,0.13,0.02,0.15,0.02v2.26
	c-0.07,0-0.08,0-0.15,0c-33.62,48.49-60.47,59.24-60.47,59.24V157.22h-76.74c0,0,0.19,193.88,0,230.13
	c48.97,0,72.09-20.51,72.09-20.51v2.28V380.51z"/>
</svg>
