<svg width="24" height="17" viewBox="0 0 24 17" fill="none" xmlns="http://www.w3.org/2000/svg">
    <path fill-rule="evenodd" clip-rule="evenodd" d="M23.4989 2.64396C24 4.52967 24 8.4593 24 8.4593C24 8.4593 24 12.389 23.4989 14.2681C23.222 15.3099 22.411 16.0945 21.3758 16.3714C19.5099 16.8791 12 16.8791 12 16.8791C12 16.8791 4.49011 16.8791 2.62418 16.378C1.58901 16.1011 0.778022 15.3165 0.501099 14.2747C0 12.389 0 8.4593 0 8.4593C0 8.4593 0 4.52308 0.501099 2.64396C0.778022 1.6022 1.58901 0.78462 2.62418 0.50769C4.49011 -5.96046e-08 12 0 12 0C12 0 19.5099 -5.96046e-08 21.3758 0.50769C22.411 0.78462 23.222 1.6022 23.4989 2.64396ZM15.8242 8.4527L9.54725 4.88571V12.0198L15.8242 8.4527Z" fill="#828282"/>
</svg>
