<?xml version="1.0" encoding="utf-8"?>
<!-- Generator: Adobe Illustrator 23.0.2, SVG Export Plug-In . SVG Version: 6.00 Build 0)  -->
<svg version="1.1" id="Layer_1" xmlns="http://www.w3.org/2000/svg" xmlns:xlink="http://www.w3.org/1999/xlink" x="0px" y="0px"
     viewBox="0 0 2458.2 611" style="enable-background:new 0 0 2458.2 611;" xml:space="preserve">
<style type="text/css">
	.st0{fill-rule:evenodd;clip-rule:evenodd;fill:#F7960B;}
</style>
    <path class="st0" d="M417,331.7c80.3-103.9,69.8-296.2,69.8-296.2H128.6v540H417V406.9v-2.3V334h0L417,331.7
	C417,331.7,417,331.7,417,331.7z M344.9,416v68.4H210V119.8h200v211.9c0,0,0.1,0,0.1,0v2.3c-0.1,0-0.1,0-0.1,0
	c-33.6,48.5-60.5,59.2-60.5,59.2V192.7h-76.7c0,0,0.2,193.9,0,230.1c49,0,72.1-20.5,72.1-20.5v2.3V416z"/>
    <g>
	<path d="M496.3,368.6v-52.8h-21.7l-1.9,30.5c-1,15.8-5.6,22.6-15.2,22.6c-1.1,0-2.1-0.2-2.9-0.4v-6.6c0.5,0.1,1.6,0.2,2.2,0.2
		c5.6,0,8.2-4.6,8.8-16.1l2.1-36.9h35.9v59.5H496.3z"/>
        <path d="M515,325.7h7.2v13.7h8c9.8,0,16.1,5.6,16.1,14.6s-6.3,14.6-16.1,14.6H515V325.7z M522.1,345.3v17.4h7.9
		c5.6,0,9.1-3.5,9.1-8.7c0-5.3-3.6-8.7-9.1-8.7H522.1z"/>
        <path d="M554.1,368.6v-42.9h18.3c8,0,12.9,4.2,12.9,11.1c0,4.4-3.1,8.5-7,9.3v0.3c5.4,0.7,8.9,4.6,8.9,9.8
		c0,7.6-5.6,12.3-14.7,12.3H554.1z M561.2,343.8h9c5.4,0,8-2,8-6.2c0-3.9-2.4-6-6.9-6h-10.1V343.8z M561.2,362.8h10.9
		c5.2,0,8-2.3,8-6.7c0-4.5-3-6.6-9.3-6.6h-9.6V362.8z"/>
        <path d="M595,313.6c0-2.5,2-4.5,4.5-4.5c2.5,0,4.5,2,4.5,4.5c0,2.5-2,4.5-4.5,4.5C597,318.1,595,316.1,595,313.6z M595.9,325.7h7.2
		v42.9h-7.2V325.7z"/>
        <path d="M613.5,368.6v-42.9h18.3c8,0,12.9,4.2,12.9,11.1c0,4.4-3.1,8.5-7,9.3v0.3c5.4,0.7,8.9,4.6,8.9,9.8
		c0,7.6-5.6,12.3-14.7,12.3H613.5z M620.7,343.8h9c5.4,0,8-2,8-6.2c0-3.9-2.4-6-6.9-6h-10.1V343.8z M620.7,362.8h10.9
		c5.2,0,8-2.3,8-6.7c0-4.5-3-6.6-9.3-6.6h-9.6V362.8z"/>
        <path d="M683.5,339.8c-1-4.7-4.7-8.5-11-8.5c-7.4,0-12.4,6.1-12.4,15.9c0,10,5.1,15.9,12.5,15.9c5.9,0,9.7-3.1,10.9-8.2h7
		c-1.1,8.5-8.3,14.5-18,14.5c-11.9,0-19.8-8.4-19.8-22.2c0-13.5,7.9-22.2,19.7-22.2c10.7,0,17.1,7.1,18,14.8H683.5z"/>
        <path d="M698,325.7h7.2v13.7h8c9.8,0,16.1,5.6,16.1,14.6s-6.3,14.6-16.1,14.6H698V325.7z M705.2,345.3v17.4h7.9
		c5.6,0,9.1-3.5,9.1-8.7c0-5.3-3.6-8.7-9.1-8.7H705.2z"/>
        <path d="M744.3,348v20.6h-7.2v-42.9h7.2v19h0.3l18.2-19h8.9L751.7,346l20.5,22.6H763L744.6,348H744.3z"/>
        <path d="M775.3,356.5c0-7.3,5.6-12,15.5-12.5l12.3-0.7v-3.6c0-5.2-3.5-8.4-9.4-8.4c-5.5,0-9,2.6-9.9,6.8h-6.9
		c0.5-7.4,6.8-13.1,17-13.1c10.1,0,16.4,5.4,16.4,14v29.6h-6.8v-7.4h-0.2c-2.6,4.9-8,8.1-13.8,8.1
		C781,369.4,775.3,364.2,775.3,356.5z M803.1,352.3v-3.5l-11.5,0.7c-5.8,0.4-9.1,2.9-9.1,7c0,4.1,3.4,6.8,8.6,6.8
		C797.9,363.3,803.1,358.5,803.1,352.3z"/>
        <path d="M865.7,349.3h-21v19.3h-7.2v-42.9h7.2v17.7h21v-17.7h7.2v42.9h-7.2V349.3z"/>
        <path d="M881.2,356.5c0-7.3,5.6-12,15.5-12.5l12.3-0.7v-3.6c0-5.2-3.5-8.4-9.4-8.4c-5.5,0-9,2.6-9.9,6.8h-6.9
		c0.5-7.4,6.8-13.1,17-13.1c10.1,0,16.4,5.4,16.4,14v29.6h-6.8v-7.4h-0.2c-2.6,4.9-8,8.1-13.8,8.1
		C887,369.4,881.2,364.2,881.2,356.5z M909.1,352.3v-3.5l-11.5,0.7c-5.8,0.4-9.1,2.9-9.1,7c0,4.1,3.4,6.8,8.6,6.8
		C903.9,363.3,909.1,358.5,909.1,352.3z"/>
        <path d="M960.8,379.9v-11.3h-34.7v-42.9h7.2v37h20.2v-37h7.2v37h6.8v17.2H960.8z"/>
        <path d="M973.4,313.6c0-2.5,2-4.5,4.5-4.5c2.5,0,4.5,2,4.5,4.5c0,2.5-2,4.5-4.5,4.5C975.4,318.1,973.4,316.1,973.4,313.6z
		 M974.3,325.7h7.2v42.9h-7.2V325.7z"/>
        <path d="M989.9,347.2c0-13.7,8-22.2,19.9-22.2c11.8,0,19.8,8.5,19.8,22.2c0,13.6-8,22.2-19.8,22.2
		C997.9,369.4,989.9,360.8,989.9,347.2z M1022.3,347.2c0-10.1-4.9-15.9-12.5-15.9c-7.6,0-12.6,5.8-12.6,15.9
		c0,10.1,5,15.9,12.6,15.9C1017.3,363,1022.3,357.3,1022.3,347.2z"/>
        <path d="M1065.7,349.3h-21v19.3h-7.2v-42.9h7.2v17.7h21v-17.7h7.2v42.9h-7.2V349.3z"/>
        <path d="M1081.3,356.5c0-7.3,5.6-12,15.5-12.5l12.3-0.7v-3.6c0-5.2-3.5-8.4-9.4-8.4c-5.5,0-9,2.6-9.9,6.8h-6.9
		c0.5-7.4,6.8-13.1,17-13.1c10.1,0,16.4,5.4,16.4,14v29.6h-6.8v-7.4h-0.2c-2.6,4.9-8,8.1-13.8,8.1
		C1087,369.4,1081.3,364.2,1081.3,356.5z M1109.1,352.3v-3.5l-11.5,0.7c-5.8,0.4-9.1,2.9-9.1,7c0,4.1,3.4,6.8,8.6,6.8
		C1103.9,363.3,1109.1,358.5,1109.1,352.3z"/>
        <path d="M1124.9,369c-1.2,0-2.1-0.2-2.6-0.5v-6.5c0.4,0.1,1.2,0.3,2.2,0.3c4.2,0,5.9-5,6.4-12.9l1.6-23.8h28.1v42.9h-7.2v-37H1139
		l-1.3,18.1C1136.9,361.5,1133.9,369,1124.9,369z"/>
        <path d="M1170.7,325.7h7.2v13.7h8c9.8,0,16.1,5.6,16.1,14.6s-6.3,14.6-16.1,14.6h-15.2V325.7z M1177.9,345.3v17.4h7.9
		c5.6,0,9.1-3.5,9.1-8.7c0-5.3-3.6-8.7-9.1-8.7H1177.9z"/>
        <path d="M1238,349.3h-21v19.3h-7.2v-42.9h7.2v17.7h21v-17.7h7.2v42.9h-7.2V349.3z"/>
        <path d="M1253.6,356.5c0-7.3,5.6-12,15.5-12.5l12.3-0.7v-3.6c0-5.2-3.5-8.4-9.4-8.4c-5.5,0-9,2.6-9.9,6.8h-6.9
		c0.5-7.4,6.8-13.1,17-13.1c10.1,0,16.4,5.4,16.4,14v29.6h-6.8v-7.4h-0.2c-2.6,4.9-8,8.1-13.8,8.1
		C1259.3,369.4,1253.6,364.2,1253.6,356.5z M1281.4,352.3v-3.5l-11.5,0.7c-5.8,0.4-9.1,2.9-9.1,7c0,4.1,3.4,6.8,8.6,6.8
		C1276.2,363.3,1281.4,358.5,1281.4,352.3z"/>
        <path d="M464.8,432.9v37h-7.2V427h27.6v5.9H464.8z"/>
        <path d="M489.2,457.8c0-7.3,5.6-12,15.5-12.5l12.3-0.7V441c0-5.2-3.5-8.4-9.4-8.4c-5.5,0-9,2.6-9.9,6.8h-6.9
		c0.5-7.4,6.8-13.1,17-13.1c10.1,0,16.4,5.4,16.4,14v29.6h-6.8v-7.4h-0.2c-2.6,4.9-8,8.1-13.8,8.1
		C495,470.6,489.2,465.5,489.2,457.8z M517.1,453.6v-3.5l-11.5,0.7c-5.8,0.4-9.1,2.9-9.1,7c0,4.1,3.4,6.8,8.6,6.8
		C511.9,464.5,517.1,459.8,517.1,453.6z"/>
        <path d="M532.8,470.3c-1.2,0-2.1-0.2-2.6-0.5v-6.5c0.4,0.1,1.2,0.3,2.2,0.3c4.2,0,5.9-5,6.4-12.9l1.6-23.8h28.1v42.9h-7.2v-37H547
		l-1.3,18.1C544.8,462.8,541.9,470.3,532.8,470.3z"/>
        <path d="M614.2,457.6c-1.2,7.5-8.5,13-17.8,13c-12.3,0-19.7-8.5-19.7-22c0-13.3,7.6-22.3,19.4-22.3c11.6,0,18.7,8.4,18.7,21.4v2.7
		H584v0.4c0,8.2,4.8,13.6,12.5,13.6c5.4,0,9.4-2.8,10.6-6.8H614.2z M584,444.8h23.3c-0.2-7.2-4.7-12.3-11.4-12.3
		C589.2,432.5,584.5,437.7,584,444.8z"/>
        <path d="M661.9,448.5c0,13.4-7.4,22.2-18.2,22.2c-6.1,0-11.1-3-13.6-7.7h-0.2v21.3h-7.2V427h6.8v7.3h0.2c2.6-4.8,7.6-8,13.8-8
		C654.5,426.3,661.9,435,661.9,448.5z M654.6,448.5c0-9.7-4.8-15.9-12.4-15.9c-7.3,0-12.3,6.3-12.3,15.9c0,9.6,4.9,15.9,12.3,15.9
		C649.8,464.3,654.6,458.2,654.6,448.5z"/>
        <path d="M705.4,457.6c-1.2,7.5-8.5,13-17.8,13c-12.3,0-19.7-8.5-19.7-22c0-13.3,7.6-22.3,19.4-22.3c11.6,0,18.7,8.4,18.7,21.4v2.7
		h-30.7v0.4c0,8.2,4.8,13.6,12.5,13.6c5.4,0,9.4-2.8,10.6-6.8H705.4z M675.3,444.8h23.3c-0.2-7.2-4.7-12.3-11.4-12.3
		C680.4,432.5,675.7,437.7,675.3,444.8z"/>
        <path d="M737.1,454.7h-7.4l-10.9,15.2h-8.3l12-16.6c-6.1-1.7-9.7-6.2-9.7-12.1c0-8.8,6.3-14.2,16.2-14.2h15.3v42.9h-7.2V454.7z
		 M737.1,448.8v-15.8H729c-5.6,0-9.1,3-9.1,8.2c0,4.5,3.6,7.6,9.1,7.6H737.1z"/>
        <path d="M771.6,469.9V427h8.7l15.2,33.4h0.3l15.3-33.4h8.4v42.9h-7.1v-30.4h-0.3l-13.8,29.2h-5.5L779,439.5h-0.3v30.4H771.6z"/>
        <path d="M829.7,469.9V427h7.2v31.9h0.3l21.3-31.9h7.1v42.9h-7.2V438h-0.3l-21.3,31.9H829.7z"/>
        <path d="M904.3,441.1c-1-4.7-4.7-8.5-11-8.5c-7.4,0-12.4,6.1-12.4,15.9c0,10,5.1,15.9,12.5,15.9c5.9,0,9.7-3.1,10.9-8.2h7
		c-1.1,8.5-8.3,14.5-18,14.5c-11.9,0-19.8-8.4-19.8-22.2c0-13.5,7.9-22.2,19.7-22.2c10.7,0,17.1,7.1,18,14.8H904.3z"/>
        <path d="M949.3,432.9h-13.8v37h-7.2v-37h-13.8V427h34.8V432.9z"/>
        <path d="M990.7,457.6c-1.2,7.5-8.5,13-17.8,13c-12.3,0-19.7-8.5-19.7-22c0-13.3,7.6-22.3,19.4-22.3c11.6,0,18.7,8.4,18.7,21.4v2.7
		h-30.7v0.4c0,8.2,4.8,13.6,12.5,13.6c5.4,0,9.4-2.8,10.6-6.8H990.7z M960.5,444.8h23.3c-0.2-7.2-4.7-12.3-11.4-12.3
		C965.6,432.5,960.9,437.7,960.5,444.8z"/>
        <path d="M1033.9,481.2v-11.3h-34.7V427h7.2v37h20.2v-37h7.2v37h6.8v17.2H1033.9z"/>
        <path d="M1076.3,432.9h-13.8v37h-7.2v-37h-13.8V427h34.8V432.9z"/>
        <path d="M1082.9,469.9V427h18.3c8,0,12.9,4.2,12.9,11.1c0,4.4-3.1,8.5-7,9.3v0.3c5.4,0.7,8.9,4.6,8.9,9.8c0,7.6-5.6,12.3-14.7,12.3
		H1082.9z M1090.1,445.1h9c5.4,0,8-2,8-6.2c0-3.9-2.4-6-6.9-6h-10.1V445.1z M1090.1,464.1h10.9c5.2,0,8-2.3,8-6.7
		c0-4.5-3-6.6-9.3-6.6h-9.6V464.1z"/>
        <path d="M457.1,516.2c0-2.5,2-4.5,4.5-4.5c2.5,0,4.5,2,4.5,4.5c0,2.5-2,4.5-4.5,4.5C459.1,520.7,457.1,518.7,457.1,516.2z
		 M458,528.3h7.2v42.9H458V528.3z"/>
        <path d="M475.7,571.2v-42.9h8.7l15.2,33.4h0.3l15.3-33.4h8.4v42.9h-7.1v-30.4h-0.3L502.4,570h-5.5L483,540.8h-0.3v30.4H475.7z"/>
        <path d="M569.2,558.9c-1.2,7.5-8.5,13-17.8,13c-12.3,0-19.7-8.5-19.7-22c0-13.3,7.6-22.3,19.4-22.3c11.6,0,18.7,8.4,18.7,21.4v2.7
		H539v0.4c0,8.2,4.8,13.6,12.5,13.6c5.4,0,9.4-2.8,10.6-6.8H569.2z M539.1,546.1h23.3c-0.2-7.2-4.7-12.3-11.4-12.3
		C544.2,533.8,539.5,539,539.1,546.1z"/>
        <path d="M605.9,551.9h-21v19.3h-7.2v-42.9h7.2V546h21v-17.7h7.2v42.9h-7.2V551.9z"/>
        <path d="M622.7,516.2c0-2.5,2-4.5,4.5-4.5c2.5,0,4.5,2,4.5,4.5c0,2.5-2,4.5-4.5,4.5C624.7,520.7,622.7,518.7,622.7,516.2z
		 M623.6,528.3h7.2v42.9h-7.2V528.3z"/>
        <path d="M681.3,571.2h-21.6v-59.5h34.7v6.7h-27.3v17h14.1c11.2,0,19.1,7.4,19.1,17.9C700.4,563.9,692.5,571.2,681.3,571.2z
		 M679.4,564.5c8.5,0,13.4-4,13.4-11.2c0-7.2-4.9-11.3-13.4-11.3h-12.3v22.4H679.4z"/>
        <path d="M711.3,566.9c0-2.6,2.1-4.7,4.7-4.7s4.7,2.1,4.7,4.7s-2.1,4.7-4.7,4.7S711.3,569.5,711.3,566.9z"/>
        <path d="M746.1,571.2v-59.5h35.3v6.8h-27.8v52.7H746.1z"/>
        <path d="M785.6,566.9c0-2.6,2.1-4.7,4.7-4.7s4.7,2.1,4.7,4.7s-2.1,4.7-4.7,4.7S785.6,569.5,785.6,566.9z"/>
        <path d="M820.4,571.2v-59.5h22.5c10.2,0,17.1,5.9,17.1,14.8c0,6.2-4.5,12-10.3,13v0.3c8.1,1,13.3,6.7,13.3,14.6
		c0,10.5-7.5,16.7-20.2,16.7H820.4z M827.8,537.4h11.1c8.8,0,13.6-3.5,13.6-9.9c0-5.9-4-9.1-11.3-9.1h-13.4V537.4z M841.7,564.6
		c8.9,0,13.6-3.6,13.6-10.5s-4.9-10.4-14.3-10.4h-13.2v20.9H841.7z"/>
        <path d="M869,549.8c0-13.7,8-22.2,19.9-22.2c11.8,0,19.8,8.5,19.8,22.2c0,13.6-8,22.2-19.8,22.2C877,571.9,869,563.4,869,549.8z
		 M901.4,549.8c0-10.1-4.9-15.9-12.5-15.9c-7.6,0-12.6,5.8-12.6,15.9c0,10.1,5,15.9,12.6,15.9C896.4,565.6,901.4,559.9,901.4,549.8z
		"/>
        <path d="M914,560.1h7.3c0.8,3.8,4.4,5.9,9.7,5.9c6.2,0,9.7-2.9,9.7-7c0-4.7-3.2-6.8-9.7-6.8h-6.4v-5.9h6.4c5.6,0,8.5-2.1,8.5-6.5
		c0-3.7-2.6-6.3-8.1-6.3c-5.1,0-8.6,2.2-9.2,5.6h-7c0.9-7.1,7.1-11.6,16.2-11.6c9.8,0,15.1,4.7,15.1,11.7c0,4.5-2.9,8.4-7.4,9.4v0.3
		c5.6,1.2,8.6,4.8,8.6,9.6c0,7.9-6.7,13.3-16.7,13.3C921.6,571.9,914.8,567.3,914,560.1z"/>
        <path d="M984.1,551.9h-21v19.3h-7.2v-42.9h7.2V546h21v-17.7h7.2v42.9h-7.2V551.9z"/>
        <path d="M1001.3,571.2v-42.9h7.2v31.9h0.3l21.3-31.9h7.1v42.9h-7.2v-31.9h-0.3l-21.3,31.9H1001.3z"/>
        <path d="M1082,582.5v-11.3h-34.7v-42.9h7.2v37h20.2v-37h7.2v37h6.8v17.2H1082z"/>
        <path d="M1095.1,528.3h7.2V542h8c9.8,0,16.1,5.6,16.1,14.6s-6.3,14.6-16.1,14.6h-15.2V528.3z M1102.3,547.9v17.4h7.9
		c5.6,0,9.1-3.5,9.1-8.7c0-5.3-3.6-8.7-9.1-8.7H1102.3z"/>
        <path d="M1141.4,550.6v20.6h-7.2v-42.9h7.2v19h0.3l18.2-19h8.9l-19.9,20.3l20.5,22.6h-9.2l-18.4-20.6H1141.4z"/>
        <path d="M1172.5,549.8c0-13.7,8-22.2,19.9-22.2c11.8,0,19.8,8.5,19.8,22.2c0,13.6-8,22.2-19.8,22.2
		C1180.5,571.9,1172.5,563.4,1172.5,549.8z M1204.9,549.8c0-10.1-4.9-15.9-12.5-15.9c-7.6,0-12.6,5.8-12.6,15.9
		c0,10.1,5,15.9,12.6,15.9C1199.9,565.6,1204.9,559.9,1204.9,549.8z"/>
        <path d="M1227.3,534.2v37h-7.2v-42.9h27.6v5.9H1227.3z"/>
        <path d="M1251.8,549.8c0-13.7,8-22.2,19.9-22.2c11.8,0,19.8,8.5,19.8,22.2c0,13.6-8,22.2-19.8,22.2
		C1259.8,571.9,1251.8,563.4,1251.8,549.8z M1284.2,549.8c0-10.1-4.9-15.9-12.5-15.9c-7.6,0-12.6,5.8-12.6,15.9
		c0,10.1,5,15.9,12.6,15.9C1279.3,565.6,1284.2,559.9,1284.2,549.8z"/>
</g>
</svg>
