<svg width="56" height="56" viewBox="0 0 56 56" fill="none" xmlns="http://www.w3.org/2000/svg">
<circle opacity="0.8" cx="28" cy="28" r="28" fill="white"/>
<path d="M18.7551 26.4746C20.4673 26.6441 21.7723 27.1864 22.67 28.1017C23.5677 29 24.0166 30.1525 24.0166 31.5593C24.0166 32.5763 23.7672 33.5 23.2685 34.3305C22.7698 35.1441 22.0217 35.7966 21.0242 36.2881C20.0434 36.7627 18.8382 37 17.4085 37C16.1617 37 14.9648 36.8136 13.8178 36.4407C12.6707 36.0508 11.7315 35.5169 11 34.839L12.1471 32.8305C12.7455 33.4068 13.5102 33.8729 14.4412 34.2288C15.3721 34.5678 16.3612 34.7373 17.4085 34.7373C18.7052 34.7373 19.711 34.4576 20.4258 33.8983C21.1572 33.339 21.523 32.5678 21.523 31.5847C21.523 30.6017 21.1655 29.839 20.4507 29.2966C19.7359 28.7542 18.6553 28.4831 17.209 28.4831H15.8126V26.7034L20.2014 21.2119H11.7979V19H23.3184V20.7288L18.7551 26.4746Z" fill="#161412"/>
<path d="M27.7636 19H35.1197C36.9649 19 38.6024 19.3729 40.0321 20.1186C41.4617 20.8644 42.5672 21.9153 43.3485 23.2712C44.1465 24.6102 44.5455 26.1525 44.5455 27.8983C44.5455 29.6441 44.1465 31.1949 43.3485 32.5508C42.5672 33.8898 41.4617 34.9322 40.0321 35.678C38.6024 36.4237 36.9649 36.7966 35.1197 36.7966H27.7636V19ZM34.9701 34.5847C36.3831 34.5847 37.6216 34.3051 38.6855 33.7458C39.7661 33.1864 40.5973 32.4068 41.1791 31.4068C41.7609 30.3898 42.0519 29.2203 42.0519 27.8983C42.0519 26.5763 41.7609 25.4153 41.1791 24.4153C40.5973 23.3983 39.7661 22.6102 38.6855 22.0508C37.6216 21.4915 36.3831 21.2119 34.9701 21.2119H30.2572V34.5847H34.9701Z" fill="#161412"/>
</svg>
