<svg width="40" height="40" viewBox="0 0 40 40" fill="none" xmlns="http://www.w3.org/2000/svg">
<path fill-rule="evenodd" clip-rule="evenodd" d="M20 13.75C18.3424 13.75 16.7527 14.4085 15.5806 15.5806C14.4085 16.7527 13.75 18.3424 13.75 20C13.75 21.6576 14.4085 23.2473 15.5806 24.4194C16.7527 25.5915 18.3424 26.25 20 26.25C21.6576 26.25 23.2473 25.5915 24.4194 24.4194C25.5915 23.2473 26.25 21.6576 26.25 20C26.25 18.3424 25.5915 16.7527 24.4194 15.5806C23.2473 14.4085 21.6576 13.75 20 13.75ZM16.25 20C16.25 20.9946 16.6451 21.9484 17.3483 22.6517C18.0516 23.3549 19.0054 23.75 20 23.75C20.9946 23.75 21.9484 23.3549 22.6517 22.6517C23.3549 21.9484 23.75 20.9946 23.75 20C23.75 19.0054 23.3549 18.0516 22.6517 17.3484C21.9484 16.6451 20.9946 16.25 20 16.25C19.0054 16.25 18.0516 16.6451 17.3483 17.3484C16.6451 18.0516 16.25 19.0054 16.25 20Z" fill="#161412"/>
<path d="M27.5 11.25C27.1685 11.25 26.8505 11.3817 26.6161 11.6161C26.3817 11.8505 26.25 12.1685 26.25 12.5C26.25 12.8315 26.3817 13.1495 26.6161 13.3839C26.8505 13.6183 27.1685 13.75 27.5 13.75C27.8315 13.75 28.1495 13.6183 28.3839 13.3839C28.6183 13.1495 28.75 12.8315 28.75 12.5C28.75 12.1685 28.6183 11.8505 28.3839 11.6161C28.1495 11.3817 27.8315 11.25 27.5 11.25Z" fill="#161412"/>
<path fill-rule="evenodd" clip-rule="evenodd" d="M11.25 6.25C9.92392 6.25 8.65215 6.77678 7.71447 7.71447C6.77678 8.65215 6.25 9.92392 6.25 11.25V28.75C6.25 30.0761 6.77678 31.3479 7.71447 32.2855C8.65215 33.2232 9.92392 33.75 11.25 33.75H28.75C30.0761 33.75 31.3478 33.2232 32.2855 32.2855C33.2232 31.3479 33.75 30.0761 33.75 28.75V11.25C33.75 9.92392 33.2232 8.65215 32.2855 7.71447C31.3478 6.77678 30.0761 6.25 28.75 6.25H11.25ZM28.75 8.75H11.25C10.587 8.75 9.95107 9.01339 9.48223 9.48223C9.01339 9.95107 8.75 10.587 8.75 11.25V28.75C8.75 29.413 9.01339 30.0489 9.48223 30.5178C9.95107 30.9866 10.587 31.25 11.25 31.25H28.75C29.413 31.25 30.0489 30.9866 30.5178 30.5178C30.9866 30.0489 31.25 29.413 31.25 28.75V11.25C31.25 10.587 30.9866 9.95107 30.5178 9.48223C30.0489 9.01339 29.413 8.75 28.75 8.75Z" fill="#161412"/>
</svg>
