<svg width="13" height="13" viewBox="0 0 13 13" fill="none" xmlns="http://www.w3.org/2000/svg">
<path fill-rule="evenodd" clip-rule="evenodd" d="M1.83333 6.5C1.83333 3.92259 3.92259 1.83333 6.5 1.83333C7.97281 1.83333 9.2876 2.51586 10.1434 3.58334H9.20833C8.79412 3.58334 8.45833 3.91912 8.45833 4.33334C8.45833 4.74755 8.79412 5.08334 9.20833 5.08334H11.4498C11.4608 5.08358 11.4719 5.08359 11.483 5.08334H11.5917C11.7328 5.08334 11.8726 5.05553 12.0031 5.00151C12.1335 4.94748 12.252 4.8683 12.3518 4.76848C12.4516 4.66866 12.5308 4.55015 12.5848 4.41972C12.6389 4.28929 12.6667 4.1495 12.6667 4.00834V1.625C12.6667 1.21079 12.3309 0.875004 11.9167 0.875004C11.5025 0.875004 11.1667 1.21079 11.1667 1.625V2.46887C10.0362 1.16139 8.36503 0.333333 6.5 0.333333C3.09416 0.333333 0.333334 3.09416 0.333334 6.5C0.333334 9.90584 3.09416 12.6667 6.5 12.6667C9.5921 12.6667 12.1511 10.3915 12.5977 7.42411C12.6593 7.01451 12.3772 6.63249 11.9676 6.57085C11.558 6.50921 11.176 6.79129 11.1144 7.20089C10.7766 9.44545 8.83865 11.1667 6.5 11.1667C3.92259 11.1667 1.83333 9.07741 1.83333 6.5Z" fill="#161412"/>
</svg>
