<svg width="24" height="24" viewBox="0 0 24 24" fill="none" xmlns="http://www.w3.org/2000/svg">
<path fill-rule="evenodd" clip-rule="evenodd" d="M10.0527 3.46918C6.36442 3.46918 3.375 6.45859 3.375 10.1469C3.375 13.8352 6.36442 16.8246 10.0527 16.8246C11.575 16.8246 12.9782 16.3154 14.1013 15.458L18.8773 20.234L19.7612 19.3502L15.0206 14.6095C16.0837 13.4269 16.7304 11.8625 16.7304 10.1469C16.7304 6.45859 13.741 3.46918 10.0527 3.46918ZM4.625 10.1469C4.625 7.14895 7.05477 4.71918 10.0527 4.71918C13.0507 4.71918 15.4804 7.14895 15.4804 10.1469C15.4804 13.1448 13.0507 15.5746 10.0527 15.5746C7.05477 15.5746 4.625 13.1448 4.625 10.1469Z" fill="#161412"/>
</svg>
