<svg width="29" height="29" viewBox="0 0 29 29" fill="none" xmlns="http://www.w3.org/2000/svg">
<path fill-rule="evenodd" clip-rule="evenodd" d="M12.1562 20.75C13.2848 20.75 14.4023 20.5277 15.4449 20.0958C16.4876 19.664 17.4349 19.031 18.233 18.233C19.031 17.4349 19.664 16.4876 20.0958 15.4449C20.5277 14.4023 20.75 13.2848 20.75 12.1562C20.75 11.0277 20.5277 9.91021 20.0958 8.86756C19.664 7.82492 19.031 6.87755 18.233 6.07955C17.4349 5.28155 16.4876 4.64854 15.4449 4.21666C14.4023 3.78478 13.2848 3.5625 12.1562 3.5625C9.87705 3.5625 7.69119 4.46791 6.07955 6.07955C4.46791 7.69119 3.5625 9.87705 3.5625 12.1562C3.5625 14.4355 4.46791 16.6213 6.07955 18.233C7.69119 19.8446 9.87705 20.75 12.1562 20.75ZM22.3125 12.1562C22.3125 14.8499 21.2425 17.4331 19.3378 19.3378C17.4331 21.2425 14.8499 22.3125 12.1562 22.3125C9.46265 22.3125 6.87936 21.2425 4.9747 19.3378C3.07003 17.4331 2 14.8499 2 12.1562C2 9.46265 3.07003 6.87936 4.9747 4.9747C6.87936 3.07003 9.46265 2 12.1562 2C14.8499 2 17.4331 3.07003 19.3378 4.9747C21.2425 6.87936 22.3125 9.46265 22.3125 12.1562Z" fill="#161412"/>
<path d="M18.1621 20.3469C18.209 20.4094 18.259 20.4688 18.3152 20.5266L24.3309 26.5422C24.6238 26.8354 25.0213 27.0002 25.4358 27.0003C25.8503 27.0005 26.2478 26.836 26.541 26.543C26.8342 26.25 26.999 25.8525 26.9991 25.4381C26.9993 25.0236 26.8348 24.626 26.5418 24.3328L20.5262 18.3172C20.4703 18.2607 20.4102 18.2084 20.3465 18.1609C19.7335 18.9967 18.997 19.7343 18.1621 20.3484V20.3469Z" fill="#161412"/>
<path fill-rule="evenodd" clip-rule="evenodd" d="M6.6875 12.1562C6.6875 11.949 6.76981 11.7503 6.91632 11.6038C7.06284 11.4573 7.26155 11.375 7.46875 11.375H16.8438C17.051 11.375 17.2497 11.4573 17.3962 11.6038C17.5427 11.7503 17.625 11.949 17.625 12.1562C17.625 12.3635 17.5427 12.5622 17.3962 12.7087C17.2497 12.8552 17.051 12.9375 16.8438 12.9375H7.46875C7.26155 12.9375 7.06284 12.8552 6.91632 12.7087C6.76981 12.5622 6.6875 12.3635 6.6875 12.1562Z" fill="#161412"/>
</svg>
